<svg xmlns="http://www.w3.org/2000/svg" width="32" height="32" viewBox="0 0 24 24"><path fill="currentColor" d="M11.5 8.5v-3h-3v-1h3v-3h1v3h3v1h-3v3zM7.308 21.116q-.633 0-1.067-.434t-.433-1.066t.433-1.067q.434-.433 1.067-.433t1.066.433t.434 1.067t-.434 1.066t-1.066.434m9.384 0q-.632 0-1.066-.434t-.434-1.066t.434-1.067q.434-.433 1.066-.433t1.067.433q.433.434.433 1.067q0 .632-.433 1.066q-.434.434-1.067.434M2 3.5v-1h2.448l4.096 8.616h6.635q.173 0 .308-.087q.134-.087.23-.24L19.213 4.5h1.14l-3.784 6.835q-.217.365-.565.573t-.762.208H8.1l-1.215 2.23q-.154.231-.01.5t.433.27h10.884v1H7.308q-.875 0-1.309-.735t-.018-1.485l1.504-2.68L3.808 3.5z"/></svg>